<svg xmlns="http://www.w3.org/2000/svg" xmlns:xlink="http://www.w3.org/1999/xlink" width="2000" zoomAndPan="magnify" viewBox="0 0 1500 1499.999933" height="2000" preserveAspectRatio="xMidYMid meet" version="1.0"><defs><g/><clipPath id="bc1cbe98e4"><path d="M 541.226562 613.773438 L 591.742188 613.773438 L 591.742188 664.289062 L 541.226562 664.289062 Z M 541.226562 613.773438 " clip-rule="nonzero"/></clipPath><clipPath id="af485ecd21"><path d="M 566.484375 613.773438 C 552.535156 613.773438 541.226562 625.082031 541.226562 639.03125 C 541.226562 652.980469 552.535156 664.289062 566.484375 664.289062 C 580.433594 664.289062 591.742188 652.980469 591.742188 639.03125 C 591.742188 625.082031 580.433594 613.773438 566.484375 613.773438 Z M 566.484375 613.773438 " clip-rule="nonzero"/></clipPath><clipPath id="82e10aead1"><path d="M 0.226562 0.773438 L 50.742188 0.773438 L 50.742188 51.289062 L 0.226562 51.289062 Z M 0.226562 0.773438 " clip-rule="nonzero"/></clipPath><clipPath id="d4e5f54155"><path d="M 25.484375 0.773438 C 11.535156 0.773438 0.226562 12.082031 0.226562 26.03125 C 0.226562 39.980469 11.535156 51.289062 25.484375 51.289062 C 39.433594 51.289062 50.742188 39.980469 50.742188 26.03125 C 50.742188 12.082031 39.433594 0.773438 25.484375 0.773438 Z M 25.484375 0.773438 " clip-rule="nonzero"/></clipPath><clipPath id="80e3e3d280"><rect x="0" width="51" y="0" height="52"/></clipPath><clipPath id="4d61a1c3bd"><path d="M 559.503906 618.273438 L 601.019531 618.273438 L 601.019531 659.789062 L 559.503906 659.789062 Z M 559.503906 618.273438 " clip-rule="nonzero"/></clipPath><clipPath id="8866d434f7"><path d="M 580.261719 618.273438 C 568.796875 618.273438 559.503906 627.566406 559.503906 639.03125 C 559.503906 650.496094 568.796875 659.789062 580.261719 659.789062 C 591.726562 659.789062 601.019531 650.496094 601.019531 639.03125 C 601.019531 627.566406 591.726562 618.273438 580.261719 618.273438 Z M 580.261719 618.273438 " clip-rule="nonzero"/></clipPath><clipPath id="7660332f85"><path d="M 0.503906 0.273438 L 42.019531 0.273438 L 42.019531 41.789062 L 0.503906 41.789062 Z M 0.503906 0.273438 " clip-rule="nonzero"/></clipPath><clipPath id="ed3323aaf4"><path d="M 21.261719 0.273438 C 9.796875 0.273438 0.503906 9.566406 0.503906 21.03125 C 0.503906 32.496094 9.796875 41.789062 21.261719 41.789062 C 32.726562 41.789062 42.019531 32.496094 42.019531 21.03125 C 42.019531 9.566406 32.726562 0.273438 21.261719 0.273438 Z M 21.261719 0.273438 " clip-rule="nonzero"/></clipPath><clipPath id="4560baa00b"><rect x="0" width="43" y="0" height="42"/></clipPath><clipPath id="b8527b11a8"><path d="M 801.328125 589.160156 L 880.789062 589.160156 L 880.789062 633.671875 L 801.328125 633.671875 Z M 801.328125 589.160156 " clip-rule="nonzero"/></clipPath><clipPath id="5824ac588b"><path d="M 0.328125 0.160156 L 79.789062 0.160156 L 79.789062 44.671875 L 0.328125 44.671875 Z M 0.328125 0.160156 " clip-rule="nonzero"/></clipPath><clipPath id="2f1af0e916"><rect x="0" width="80" y="0" height="45"/></clipPath><clipPath id="29547ec074"><path d="M 659 874 L 764 874 L 764 978 L 659 978 Z M 659 874 " clip-rule="nonzero"/></clipPath><clipPath id="94ac5b4b67"><path d="M 659.785156 938.046875 L 723.355469 874.476562 L 763.296875 914.417969 L 699.726562 977.988281 Z M 659.785156 938.046875 " clip-rule="nonzero"/></clipPath><clipPath id="02bfcf18d7"><path d="M 0.761719 0.320312 L 104.441406 0.320312 L 104.441406 104 L 0.761719 104 Z M 0.761719 0.320312 " clip-rule="nonzero"/></clipPath><clipPath id="fec26ff249"><path d="M 0.785156 64.046875 L 64.355469 0.476562 L 104.296875 40.417969 L 40.726562 103.988281 Z M 0.785156 64.046875 " clip-rule="nonzero"/></clipPath><clipPath id="d87c366686"><rect x="0" width="105" y="0" height="104"/></clipPath><clipPath id="2c07ececb4"><path d="M 825.027344 578.417969 L 897.96875 578.417969 L 897.96875 596.390625 L 825.027344 596.390625 Z M 825.027344 578.417969 " clip-rule="nonzero"/></clipPath><clipPath id="09e99f62c8"><path d="M 834.011719 578.417969 L 888.949219 578.417969 C 891.332031 578.417969 893.621094 579.363281 895.304688 581.050781 C 896.988281 582.734375 897.9375 585.019531 897.9375 587.402344 C 897.9375 589.789062 896.988281 592.074219 895.304688 593.757812 C 893.621094 595.445312 891.332031 596.390625 888.949219 596.390625 L 834.011719 596.390625 C 831.628906 596.390625 829.34375 595.445312 827.660156 593.757812 C 825.972656 592.074219 825.027344 589.789062 825.027344 587.402344 C 825.027344 585.019531 825.972656 582.734375 827.660156 581.050781 C 829.34375 579.363281 831.628906 578.417969 834.011719 578.417969 Z M 834.011719 578.417969 " clip-rule="nonzero"/></clipPath><clipPath id="52705535a0"><path d="M 0.0273438 0.417969 L 72.96875 0.417969 L 72.96875 18.390625 L 0.0273438 18.390625 Z M 0.0273438 0.417969 " clip-rule="nonzero"/></clipPath><clipPath id="353dd634d6"><path d="M 9.011719 0.417969 L 63.949219 0.417969 C 66.332031 0.417969 68.621094 1.363281 70.304688 3.050781 C 71.988281 4.734375 72.9375 7.019531 72.9375 9.402344 C 72.9375 11.789062 71.988281 14.074219 70.304688 15.757812 C 68.621094 17.445312 66.332031 18.390625 63.949219 18.390625 L 9.011719 18.390625 C 6.628906 18.390625 4.34375 17.445312 2.660156 15.757812 C 0.972656 14.074219 0.0273438 11.789062 0.0273438 9.402344 C 0.0273438 7.019531 0.972656 4.734375 2.660156 3.050781 C 4.34375 1.363281 6.628906 0.417969 9.011719 0.417969 Z M 9.011719 0.417969 " clip-rule="nonzero"/></clipPath><clipPath id="de65346dd2"><rect x="0" width="73" y="0" height="19"/></clipPath><clipPath id="bda438cd62"><rect x="0" width="107" y="0" height="378"/></clipPath><clipPath id="460d06c777"><path d="M 619.917969 499.488281 L 670.4375 499.488281 L 670.4375 550.003906 L 619.917969 550.003906 Z M 619.917969 499.488281 " clip-rule="nonzero"/></clipPath><clipPath id="cc7a788a25"><path d="M 645.179688 499.488281 C 631.226562 499.488281 619.917969 510.796875 619.917969 524.746094 C 619.917969 538.695312 631.226562 550.003906 645.179688 550.003906 C 659.128906 550.003906 670.4375 538.695312 670.4375 524.746094 C 670.4375 510.796875 659.128906 499.488281 645.179688 499.488281 Z M 645.179688 499.488281 " clip-rule="nonzero"/></clipPath><clipPath id="b1da3313a9"><path d="M 0.921875 0.488281 L 51.4375 0.488281 L 51.4375 51.003906 L 0.921875 51.003906 Z M 0.921875 0.488281 " clip-rule="nonzero"/></clipPath><clipPath id="0f91d3a2b7"><path d="M 26.179688 0.488281 C 12.226562 0.488281 0.917969 11.796875 0.917969 25.746094 C 0.917969 39.695312 12.226562 51.003906 26.179688 51.003906 C 40.128906 51.003906 51.4375 39.695312 51.4375 25.746094 C 51.4375 11.796875 40.128906 0.488281 26.179688 0.488281 Z M 26.179688 0.488281 " clip-rule="nonzero"/></clipPath><clipPath id="32c949d5b7"><rect x="0" width="52" y="0" height="52"/></clipPath><clipPath id="157ce6b6b7"><path d="M 617.128906 718.203125 L 667.644531 718.203125 L 667.644531 768.71875 L 617.128906 768.71875 Z M 617.128906 718.203125 " clip-rule="nonzero"/></clipPath><clipPath id="77b8f41f66"><path d="M 642.386719 718.203125 C 628.4375 718.203125 617.128906 729.511719 617.128906 743.460938 C 617.128906 757.414062 628.4375 768.71875 642.386719 768.71875 C 656.335938 768.71875 667.644531 757.414062 667.644531 743.460938 C 667.644531 729.511719 656.335938 718.203125 642.386719 718.203125 Z M 642.386719 718.203125 " clip-rule="nonzero"/></clipPath><clipPath id="7f1d83b7e3"><path d="M 0.128906 0.203125 L 50.644531 0.203125 L 50.644531 50.71875 L 0.128906 50.71875 Z M 0.128906 0.203125 " clip-rule="nonzero"/></clipPath><clipPath id="628aa5d8c9"><path d="M 25.386719 0.203125 C 11.4375 0.203125 0.128906 11.511719 0.128906 25.460938 C 0.128906 39.414062 11.4375 50.71875 25.386719 50.71875 C 39.335938 50.71875 50.644531 39.414062 50.644531 25.460938 C 50.644531 11.511719 39.335938 0.203125 25.386719 0.203125 Z M 25.386719 0.203125 " clip-rule="nonzero"/></clipPath><clipPath id="7ae8f6cd34"><rect x="0" width="51" y="0" height="51"/></clipPath><clipPath id="528b711b5f"><path d="M 804.40625 777.246094 L 861.480469 777.246094 L 861.480469 849.417969 L 804.40625 849.417969 Z M 804.40625 777.246094 " clip-rule="nonzero"/></clipPath><clipPath id="d04163eeba"><path d="M 0.40625 0.246094 L 57.480469 0.246094 L 57.480469 72.417969 L 0.40625 72.417969 Z M 0.40625 0.246094 " clip-rule="nonzero"/></clipPath><clipPath id="8817cf92ed"><rect x="0" width="58" y="0" height="73"/></clipPath><clipPath id="2406f39741"><path d="M 662.542969 869.460938 L 742.003906 869.460938 L 742.003906 913.976562 L 662.542969 913.976562 Z M 662.542969 869.460938 " clip-rule="nonzero"/></clipPath><clipPath id="ecbbcede0d"><path d="M 0.542969 0.460938 L 80.003906 0.460938 L 80.003906 44.976562 L 0.542969 44.976562 Z M 0.542969 0.460938 " clip-rule="nonzero"/></clipPath><clipPath id="29ae35ade6"><rect x="0" width="81" y="0" height="45"/></clipPath><clipPath id="a665f74d18"><path d="M 627.078125 913.976562 L 718.660156 913.976562 L 718.660156 928.976562 L 627.078125 928.976562 Z M 627.078125 913.976562 " clip-rule="nonzero"/></clipPath><clipPath id="3780857e29"><path d="M 634.578125 913.976562 L 711.113281 913.976562 C 713.101562 913.976562 715.011719 914.765625 716.417969 916.171875 C 717.824219 917.578125 718.613281 919.484375 718.613281 921.476562 C 718.613281 923.464844 717.824219 925.371094 716.417969 926.777344 C 715.011719 928.183594 713.101562 928.976562 711.113281 928.976562 L 634.578125 928.976562 C 632.589844 928.976562 630.683594 928.183594 629.273438 926.777344 C 627.867188 925.371094 627.078125 923.464844 627.078125 921.476562 C 627.078125 919.484375 627.867188 917.578125 629.273438 916.171875 C 630.683594 914.765625 632.589844 913.976562 634.578125 913.976562 Z M 634.578125 913.976562 " clip-rule="nonzero"/></clipPath><clipPath id="78e887fec8"><path d="M 0.078125 0.976562 L 91.660156 0.976562 L 91.660156 15.976562 L 0.078125 15.976562 Z M 0.078125 0.976562 " clip-rule="nonzero"/></clipPath><clipPath id="549d29550a"><path d="M 7.578125 0.976562 L 84.113281 0.976562 C 86.101562 0.976562 88.011719 1.765625 89.417969 3.171875 C 90.824219 4.578125 91.613281 6.484375 91.613281 8.476562 C 91.613281 10.464844 90.824219 12.371094 89.417969 13.777344 C 88.011719 15.183594 86.101562 15.976562 84.113281 15.976562 L 7.578125 15.976562 C 5.589844 15.976562 3.683594 15.183594 2.273438 13.777344 C 0.867188 12.371094 0.078125 10.464844 0.078125 8.476562 C 0.078125 6.484375 0.867188 4.578125 2.273438 3.171875 C 3.683594 1.765625 5.589844 0.976562 7.578125 0.976562 Z M 7.578125 0.976562 " clip-rule="nonzero"/></clipPath><clipPath id="cc0be50020"><rect x="0" width="92" y="0" height="16"/></clipPath><clipPath id="90576a26bc"><path d="M 594.660156 524.746094 L 645.179688 524.746094 L 645.179688 575.261719 L 594.660156 575.261719 Z M 594.660156 524.746094 " clip-rule="nonzero"/></clipPath><clipPath id="2b785ceaff"><path d="M 619.917969 524.746094 C 605.96875 524.746094 594.660156 536.054688 594.660156 550.003906 C 594.660156 563.953125 605.96875 575.261719 619.917969 575.261719 C 633.871094 575.261719 645.179688 563.953125 645.179688 550.003906 C 645.179688 536.054688 633.871094 524.746094 619.917969 524.746094 Z M 619.917969 524.746094 " clip-rule="nonzero"/></clipPath><clipPath id="fb934020d0"><path d="M 0.660156 0.746094 L 51.179688 0.746094 L 51.179688 51.261719 L 0.660156 51.261719 Z M 0.660156 0.746094 " clip-rule="nonzero"/></clipPath><clipPath id="15cbfc0395"><path d="M 25.917969 0.746094 C 11.96875 0.746094 0.660156 12.054688 0.660156 26.003906 C 0.660156 39.953125 11.96875 51.261719 25.917969 51.261719 C 39.871094 51.261719 51.179688 39.953125 51.179688 26.003906 C 51.179688 12.054688 39.871094 0.746094 25.917969 0.746094 Z M 25.917969 0.746094 " clip-rule="nonzero"/></clipPath><clipPath id="cdc13829d2"><rect x="0" width="52" y="0" height="52"/></clipPath><clipPath id="b3223dd151"><path d="M 594.660156 694.488281 L 645.179688 694.488281 L 645.179688 745.003906 L 594.660156 745.003906 Z M 594.660156 694.488281 " clip-rule="nonzero"/></clipPath><clipPath id="abfb0410ac"><path d="M 619.917969 694.488281 C 605.96875 694.488281 594.660156 705.796875 594.660156 719.746094 C 594.660156 733.695312 605.96875 745.003906 619.917969 745.003906 C 633.871094 745.003906 645.179688 733.695312 645.179688 719.746094 C 645.179688 705.796875 633.871094 694.488281 619.917969 694.488281 Z M 619.917969 694.488281 " clip-rule="nonzero"/></clipPath><clipPath id="220e15c82f"><path d="M 0.660156 0.488281 L 51.179688 0.488281 L 51.179688 51.003906 L 0.660156 51.003906 Z M 0.660156 0.488281 " clip-rule="nonzero"/></clipPath><clipPath id="ca6591ba56"><path d="M 25.917969 0.488281 C 11.96875 0.488281 0.660156 11.796875 0.660156 25.746094 C 0.660156 39.695312 11.96875 51.003906 25.917969 51.003906 C 39.871094 51.003906 51.179688 39.695312 51.179688 25.746094 C 51.179688 11.796875 39.871094 0.488281 25.917969 0.488281 Z M 25.917969 0.488281 " clip-rule="nonzero"/></clipPath><clipPath id="b25621574e"><rect x="0" width="52" y="0" height="52"/></clipPath><clipPath id="903291ad79"><path d="M 552.929688 521.34375 L 559.203125 521.34375 L 559.203125 578.417969 L 552.929688 578.417969 Z M 552.929688 521.34375 " clip-rule="nonzero"/></clipPath><clipPath id="010df715c8"><path d="M 0.929688 0.34375 L 7.203125 0.34375 L 7.203125 57.417969 L 0.929688 57.417969 Z M 0.929688 0.34375 " clip-rule="nonzero"/></clipPath><clipPath id="3bdd004656"><rect x="0" width="8" y="0" height="58"/></clipPath><clipPath id="dc697fe411"><path d="M 558.753906 610.496094 L 569.695312 610.496094 L 569.695312 667.570312 L 558.753906 667.570312 Z M 558.753906 610.496094 " clip-rule="nonzero"/></clipPath><clipPath id="ec638da38f"><path d="M 0.753906 0.496094 L 11.695312 0.496094 L 11.695312 57.570312 L 0.753906 57.570312 Z M 0.753906 0.496094 " clip-rule="nonzero"/></clipPath><clipPath id="e5c4d2157e"><rect x="0" width="12" y="0" height="58"/></clipPath></defs><rect x="-150" width="1800" fill="#ffffff" y="-149.999993" height="1799.99992" fill-opacity="1"/><rect x="-150" width="1800" fill="#ffffff" y="-149.999993" height="1799.99992" fill-opacity="1"/><g clip-path="url(#bc1cbe98e4)"><g clip-path="url(#af485ecd21)"><g transform="matrix(1, 0, 0, 1, 541, 613)"><g clip-path="url(#80e3e3d280)"><g clip-path="url(#82e10aead1)"><g clip-path="url(#d4e5f54155)"><path fill="#ffffff" d="M 0.226562 0.773438 L 50.742188 0.773438 L 50.742188 51.289062 L 0.226562 51.289062 Z M 0.226562 0.773438 " fill-opacity="1" fill-rule="nonzero"/></g></g></g></g></g></g><g clip-path="url(#4d61a1c3bd)"><g clip-path="url(#8866d434f7)"><g transform="matrix(1, 0, 0, 1, 559, 618)"><g clip-path="url(#4560baa00b)"><g clip-path="url(#7660332f85)"><g clip-path="url(#ed3323aaf4)"><path fill="#000000" d="M 0.503906 0.273438 L 42.019531 0.273438 L 42.019531 41.789062 L 0.503906 41.789062 Z M 0.503906 0.273438 " fill-opacity="1" fill-rule="nonzero"/></g></g></g></g></g></g><g fill="#ff2828" fill-opacity="1"><g transform="translate(332.335385, 744.454788)"><g><path d="M 28.703125 0 L 28.703125 -177.875 L 2.5625 -177.875 L 2.5625 -220.171875 L 98.9375 -220.171875 L 98.9375 -177.875 L 72.796875 -177.875 L 72.796875 0 Z M 28.703125 0 "/></g></g></g><g fill="#ff2828" fill-opacity="1"><g transform="translate(428.705902, 744.454788)"><g><path d="M 9.734375 0 L 9.734375 -220.171875 L 53.5625 -220.171875 L 53.5625 -141.484375 L 74.328125 -141.484375 L 74.328125 -220.171875 L 118.15625 -220.171875 L 118.15625 0 L 74.328125 0 L 74.328125 -99.96875 L 53.5625 -99.96875 L 53.5625 0 Z M 9.734375 0 "/></g></g></g><g fill="#ff3131" fill-opacity="1"><g transform="translate(551.475991, 744.454788)"><g/></g></g><g fill="#ff3131" fill-opacity="1"><g transform="translate(606.325115, 744.454788)"><g/></g></g><g fill="#ff3131" fill-opacity="1"><g transform="translate(661.174239, 744.454788)"><g/></g></g><g fill="#ff3131" fill-opacity="1"><g transform="translate(716.023364, 744.454788)"><g/></g></g><g fill="#000000" fill-opacity="1"><g transform="translate(770.874409, 744.454788)"><g><path d="M 9.734375 -220.171875 L 70.484375 -220.171875 C 86.203125 -220.171875 97.988281 -215.8125 105.84375 -207.09375 C 113.707031 -198.382812 117.726562 -185.484375 117.90625 -168.390625 L 118.421875 -65.359375 C 118.585938 -43.660156 114.828125 -27.34375 107.140625 -16.40625 C 99.453125 -5.46875 86.722656 0 68.953125 0 L 9.734375 0 Z M 61.765625 -38.953125 C 69.796875 -38.953125 73.8125 -42.882812 73.8125 -50.75 L 73.8125 -164.296875 C 73.8125 -169.253906 73.425781 -172.96875 72.65625 -175.4375 C 71.894531 -177.914062 70.488281 -179.582031 68.4375 -180.4375 C 66.382812 -181.289062 63.222656 -181.71875 58.953125 -181.71875 L 54.078125 -181.71875 L 54.078125 -38.953125 Z M 61.765625 -38.953125 "/></g></g></g><g fill="#ff2828" fill-opacity="1"><g transform="translate(892.116587, 744.454788)"><g><path d="M 9.734375 0 L 9.734375 -220.171875 L 97.90625 -220.171875 L 97.90625 -177.625 L 54.59375 -177.625 L 54.59375 -134.828125 L 96.125 -134.828125 L 96.125 -93.296875 L 54.59375 -93.296875 L 54.59375 -42.796875 L 100.734375 -42.796875 L 100.734375 0 Z M 9.734375 0 "/></g></g></g><g fill="#ff2828" fill-opacity="1"><g transform="translate(992.587933, 744.454788)"><g><path d="M 29.984375 0 L 2.8125 -220.421875 L 44.859375 -220.421875 L 61 -70.484375 L 75.359375 -220.421875 L 117.390625 -220.421875 L 90.21875 0 Z M 29.984375 0 "/></g></g></g><g fill="#ff3131" fill-opacity="1"><g transform="translate(1107.671255, 744.454788)"><g/></g></g><g clip-path="url(#b8527b11a8)"><g transform="matrix(1, 0, 0, 1, 801, 589)"><g clip-path="url(#2f1af0e916)"><g clip-path="url(#5824ac588b)"><path fill="#000000" d="M 0.328125 0.160156 L 79.796875 0.160156 L 79.796875 44.671875 L 0.328125 44.671875 Z M 0.328125 0.160156 " fill-opacity="1" fill-rule="nonzero"/></g></g></g></g><g clip-path="url(#29547ec074)"><g clip-path="url(#94ac5b4b67)"><g transform="matrix(1, 0, 0, 1, 659, 874)"><g clip-path="url(#d87c366686)"><g clip-path="url(#02bfcf18d7)"><g clip-path="url(#fec26ff249)"><path fill="#000000" d="M 0.785156 64.046875 L 64.285156 0.546875 L 104.226562 40.488281 L 40.726562 103.988281 Z M 0.785156 64.046875 " fill-opacity="1" fill-rule="nonzero"/></g></g></g></g></g></g><g clip-path="url(#2c07ececb4)"><g clip-path="url(#09e99f62c8)"><g transform="matrix(1, 0, 0, 1, 825, 578)"><g clip-path="url(#de65346dd2)"><g clip-path="url(#52705535a0)"><g clip-path="url(#353dd634d6)"><path fill="#ffffff" d="M 0.0273438 0.417969 L 72.96875 0.417969 L 72.96875 18.390625 L 0.0273438 18.390625 Z M 0.0273438 0.417969 " fill-opacity="1" fill-rule="nonzero"/></g></g></g></g></g></g><g transform="matrix(1, 0, 0, 1, 549, 440)"><g clip-path="url(#bda438cd62)"><g fill="#000000" fill-opacity="1"><g transform="translate(106.017707, 84.896507)"><g><path d="M -9.734375 0 L -9.734375 220.15625 L -97.90625 220.15625 L -97.90625 177.609375 L -54.59375 177.609375 L -54.59375 134.8125 L -96.109375 134.8125 L -96.109375 93.296875 L -54.59375 93.296875 L -54.59375 42.796875 L -100.71875 42.796875 L -100.71875 0 Z M -9.734375 0 "/></g></g></g></g></g><g clip-path="url(#460d06c777)"><g clip-path="url(#cc7a788a25)"><g transform="matrix(1, 0, 0, 1, 619, 499)"><g clip-path="url(#32c949d5b7)"><g clip-path="url(#b1da3313a9)"><g clip-path="url(#0f91d3a2b7)"><path fill="#ffffff" d="M 0.917969 0.488281 L 51.4375 0.488281 L 51.4375 51.003906 L 0.917969 51.003906 Z M 0.917969 0.488281 " fill-opacity="1" fill-rule="nonzero"/></g></g></g></g></g></g><g clip-path="url(#157ce6b6b7)"><g clip-path="url(#77b8f41f66)"><g transform="matrix(1, 0, 0, 1, 617, 718)"><g clip-path="url(#7ae8f6cd34)"><g clip-path="url(#7f1d83b7e3)"><g clip-path="url(#628aa5d8c9)"><path fill="#ffffff" d="M 0.128906 0.203125 L 50.644531 0.203125 L 50.644531 50.71875 L 0.128906 50.71875 Z M 0.128906 0.203125 " fill-opacity="1" fill-rule="nonzero"/></g></g></g></g></g></g><g clip-path="url(#528b711b5f)"><g transform="matrix(1, 0, 0, 1, 804, 777)"><g clip-path="url(#8817cf92ed)"><g clip-path="url(#d04163eeba)"><path fill="#000000" d="M 0.40625 0.246094 L 57.480469 0.246094 L 57.480469 72.480469 L 0.40625 72.480469 Z M 0.40625 0.246094 " fill-opacity="1" fill-rule="nonzero"/></g></g></g></g><g fill="#ff2828" fill-opacity="1"><g transform="translate(426.605518, 974.835376)"><g><path d="M 62.03125 2.046875 C 42.039062 2.046875 27.597656 -2.90625 18.703125 -12.8125 C 9.816406 -22.726562 5.375 -38.707031 5.375 -60.75 L 5.375 -82.28125 L 48.703125 -82.28125 L 48.703125 -54.84375 C 48.703125 -43.914062 52.203125 -38.453125 59.203125 -38.453125 C 63.140625 -38.453125 65.875 -39.601562 67.40625 -41.90625 C 68.945312 -44.21875 69.71875 -48.101562 69.71875 -53.5625 C 69.71875 -60.738281 68.863281 -66.675781 67.15625 -71.375 C 65.445312 -76.082031 63.265625 -80.015625 60.609375 -83.171875 C 57.960938 -86.335938 53.222656 -91.25 46.390625 -97.90625 L 27.421875 -116.875 C 12.722656 -131.226562 5.375 -147.117188 5.375 -164.546875 C 5.375 -183.347656 9.6875 -197.660156 18.3125 -207.484375 C 26.945312 -217.304688 39.550781 -222.21875 56.125 -222.21875 C 75.945312 -222.21875 90.21875 -216.960938 98.9375 -206.453125 C 107.65625 -195.953125 112.015625 -179.507812 112.015625 -157.125 L 67.15625 -157.125 L 66.890625 -172.234375 C 66.890625 -175.140625 66.078125 -177.445312 64.453125 -179.15625 C 62.835938 -180.863281 60.578125 -181.71875 57.671875 -181.71875 C 54.253906 -181.71875 51.691406 -180.78125 49.984375 -178.90625 C 48.273438 -177.03125 47.421875 -174.46875 47.421875 -171.21875 C 47.421875 -164.039062 51.519531 -156.609375 59.71875 -148.921875 L 85.359375 -124.3125 C 91.335938 -118.5 96.289062 -112.988281 100.21875 -107.78125 C 104.144531 -102.570312 107.304688 -96.421875 109.703125 -89.328125 C 112.097656 -82.234375 113.296875 -73.816406 113.296875 -64.078125 C 113.296875 -42.378906 109.320312 -25.929688 101.375 -14.734375 C 93.425781 -3.546875 80.3125 2.046875 62.03125 2.046875 Z M 62.03125 2.046875 "/></g></g></g><g fill="#ff2828" fill-opacity="1"><g transform="translate(544.761922, 974.835376)"><g><path d="M 28.703125 0 L 28.703125 -177.875 L 2.5625 -177.875 L 2.5625 -220.171875 L 98.9375 -220.171875 L 98.9375 -177.875 L 72.796875 -177.875 L 72.796875 0 Z M 28.703125 0 "/></g></g></g><g fill="#000000" fill-opacity="1"><g transform="translate(646.261749, 974.835376)"><g><path d="M 62.28125 2.046875 C 44.507812 2.046875 31.007812 -3.375 21.78125 -14.21875 C 12.5625 -25.070312 7.953125 -40.328125 7.953125 -59.984375 L 7.953125 -164.8125 C 7.953125 -183.78125 12.5625 -198.085938 21.78125 -207.734375 C 31.007812 -217.390625 44.507812 -222.21875 62.28125 -222.21875 C 80.050781 -222.21875 93.550781 -217.390625 102.78125 -207.734375 C 112.007812 -198.085938 116.625 -183.78125 116.625 -164.8125 L 116.625 -59.984375 C 116.625 -40.160156 112.007812 -24.863281 102.78125 -14.09375 C 93.550781 -3.332031 80.050781 2.046875 62.28125 2.046875 Z M 62.28125 -38.453125 C 66.207031 -38.453125 68.851562 -40.160156 70.21875 -43.578125 C 71.59375 -46.992188 72.28125 -51.773438 72.28125 -57.921875 L 72.28125 -165.578125 C 72.28125 -170.359375 71.640625 -174.242188 70.359375 -177.234375 C 69.078125 -180.222656 66.472656 -181.71875 62.546875 -181.71875 C 55.191406 -181.71875 51.515625 -176.164062 51.515625 -165.0625 L 51.515625 -57.671875 C 51.515625 -51.347656 52.28125 -46.5625 53.8125 -43.3125 C 55.351562 -40.070312 58.175781 -38.453125 62.28125 -38.453125 Z M 62.28125 -38.453125 "/></g></g></g><g fill="#ff2828" fill-opacity="1"><g transform="translate(770.832051, 974.835376)"><g><path d="M 9.734375 -220.171875 L 77.40625 -220.171875 C 88.164062 -220.171875 96.492188 -217.734375 102.390625 -212.859375 C 108.285156 -207.992188 112.257812 -201.160156 114.3125 -192.359375 C 116.363281 -183.554688 117.390625 -172.320312 117.390625 -158.65625 C 117.390625 -146.1875 115.765625 -136.445312 112.515625 -129.4375 C 109.273438 -122.425781 103.640625 -117.554688 95.609375 -114.828125 C 102.265625 -113.460938 107.085938 -110.128906 110.078125 -104.828125 C 113.078125 -99.535156 114.578125 -92.359375 114.578125 -83.296875 L 114.0625 0 L 71 0 L 71 -86.125 C 71 -92.269531 69.800781 -96.195312 67.40625 -97.90625 C 65.019531 -99.613281 60.664062 -100.46875 54.34375 -100.46875 L 54.34375 0 L 9.734375 0 Z M 65.109375 -138.671875 C 71.253906 -138.671875 74.328125 -145.332031 74.328125 -158.65625 C 74.328125 -164.46875 74.070312 -168.828125 73.5625 -171.734375 C 73.050781 -174.640625 72.109375 -176.644531 70.734375 -177.75 C 69.367188 -178.863281 67.40625 -179.421875 64.84375 -179.421875 L 54.59375 -179.421875 L 54.59375 -138.671875 Z M 65.109375 -138.671875 "/></g></g></g><g fill="#ff2828" fill-opacity="1"><g transform="translate(893.089342, 974.835376)"><g><path d="M 9.734375 0 L 9.734375 -220.171875 L 97.90625 -220.171875 L 97.90625 -177.625 L 54.59375 -177.625 L 54.59375 -134.828125 L 96.125 -134.828125 L 96.125 -93.296875 L 54.59375 -93.296875 L 54.59375 -42.796875 L 100.734375 -42.796875 L 100.734375 0 Z M 9.734375 0 "/></g></g></g><g fill="#ff2828" fill-opacity="1"><g transform="translate(998.686783, 974.835376)"><g><path d="M 6.921875 0 L 6.921875 -37.421875 L 51.78125 -37.421875 L 51.78125 0 Z M 6.921875 0 "/></g></g></g><g clip-path="url(#2406f39741)"><g transform="matrix(1, 0, 0, 1, 662, 869)"><g clip-path="url(#29ae35ade6)"><g clip-path="url(#ecbbcede0d)"><path fill="#000000" d="M 0.542969 0.460938 L 80.007812 0.460938 L 80.007812 44.976562 L 0.542969 44.976562 Z M 0.542969 0.460938 " fill-opacity="1" fill-rule="nonzero"/></g></g></g></g><g clip-path="url(#a665f74d18)"><g clip-path="url(#3780857e29)"><g transform="matrix(1, 0, 0, 1, 627, 913)"><g clip-path="url(#cc0be50020)"><g clip-path="url(#78e887fec8)"><g clip-path="url(#549d29550a)"><path fill="#ffffff" d="M 0.078125 0.976562 L 91.601562 0.976562 L 91.601562 15.976562 L 0.078125 15.976562 Z M 0.078125 0.976562 " fill-opacity="1" fill-rule="nonzero"/></g></g></g></g></g></g><g clip-path="url(#90576a26bc)"><g clip-path="url(#2b785ceaff)"><g transform="matrix(1, 0, 0, 1, 594, 524)"><g clip-path="url(#cdc13829d2)"><g clip-path="url(#fb934020d0)"><g clip-path="url(#15cbfc0395)"><path fill="#000000" d="M 0.660156 0.746094 L 51.175781 0.746094 L 51.175781 51.261719 L 0.660156 51.261719 Z M 0.660156 0.746094 " fill-opacity="1" fill-rule="nonzero"/></g></g></g></g></g></g><g clip-path="url(#b3223dd151)"><g clip-path="url(#abfb0410ac)"><g transform="matrix(1, 0, 0, 1, 594, 694)"><g clip-path="url(#b25621574e)"><g clip-path="url(#220e15c82f)"><g clip-path="url(#ca6591ba56)"><path fill="#000000" d="M 0.660156 0.488281 L 51.175781 0.488281 L 51.175781 51.003906 L 0.660156 51.003906 Z M 0.660156 0.488281 " fill-opacity="1" fill-rule="nonzero"/></g></g></g></g></g></g><path stroke-linecap="butt" transform="matrix(0.000000001309, 0.75, -0.75, 0.000000001309, 559.301577, 524.748271)" fill="none" stroke-linejoin="miter" d="M 0.00230559 3.501062 L 293.679414 3.501062 " stroke="#ffffff" stroke-width="7" stroke-opacity="1" stroke-miterlimit="4"/><g clip-path="url(#903291ad79)"><g transform="matrix(1, 0, 0, 1, 552, 521)"><g clip-path="url(#3bdd004656)"><g clip-path="url(#010df715c8)"><path fill="#ffffff" d="M 0.929688 0.34375 L 7.203125 0.34375 L 7.203125 57.410156 L 0.929688 57.410156 Z M 0.929688 0.34375 " fill-opacity="1" fill-rule="nonzero"/></g></g></g></g><g fill="#000000" fill-opacity="1"><g transform="translate(439.413132, 1042.744234)"><g><path d="M 1.90625 -42.921875 L 13.546875 -42.921875 C 16.671875 -42.921875 18.941406 -42.15625 20.359375 -40.625 C 21.773438 -39.09375 22.484375 -36.59375 22.484375 -33.125 L 22.484375 -31.234375 C 22.484375 -27.128906 21.019531 -24.679688 18.09375 -23.890625 C 19.882812 -23.421875 21.144531 -22.335938 21.875 -20.640625 C 22.613281 -18.941406 22.984375 -16.691406 22.984375 -13.890625 C 22.984375 -9.328125 22.300781 -5.867188 20.9375 -3.515625 C 19.570312 -1.171875 17.109375 0 13.546875 0 L 1.90625 0 Z M 12.046875 -26.78125 C 12.773438 -26.78125 13.269531 -27.054688 13.53125 -27.609375 C 13.800781 -28.160156 13.9375 -28.9375 13.9375 -29.9375 L 13.9375 -34.234375 C 13.9375 -35.628906 13.320312 -36.328125 12.09375 -36.328125 L 10.296875 -36.328125 L 10.296875 -26.78125 Z M 11.140625 -7.546875 C 13.367188 -7.546875 14.484375 -8.613281 14.484375 -10.75 L 14.484375 -16.09375 C 14.484375 -17.382812 14.289062 -18.363281 13.90625 -19.03125 C 13.53125 -19.695312 12.859375 -20.03125 11.890625 -20.03125 L 10.296875 -20.03125 L 10.296875 -7.59375 Z M 11.140625 -7.546875 "/></g></g></g><g fill="#000000" fill-opacity="1"><g transform="translate(480.3318, 1042.744234)"><g><path d="M 11.84375 0.40625 C 8.3125 0.40625 5.6875 -0.59375 3.96875 -2.59375 C 2.257812 -4.59375 1.40625 -7.5625 1.40625 -11.5 L 1.40625 -42.921875 L 9.75 -42.921875 L 9.75 -11.84375 C 9.75 -10.476562 9.878906 -9.410156 10.140625 -8.640625 C 10.410156 -7.878906 10.976562 -7.5 11.84375 -7.5 C 12.707031 -7.5 13.269531 -7.875 13.53125 -8.625 C 13.800781 -9.375 13.9375 -10.445312 13.9375 -11.84375 L 13.9375 -42.921875 L 22.28125 -42.921875 L 22.28125 -11.5 C 22.28125 -7.5625 21.421875 -4.59375 19.703125 -2.59375 C 17.992188 -0.59375 15.375 0.40625 11.84375 0.40625 Z M 11.84375 0.40625 "/></g></g></g><g fill="#000000" fill-opacity="1"><g transform="translate(521.000677, 1042.744234)"><g><path d="M 1.5 0 L 1.5 -42.921875 L 9.796875 -42.921875 L 9.796875 0 Z M 1.5 0 "/></g></g></g><g fill="#000000" fill-opacity="1"><g transform="translate(549.330168, 1042.744234)"><g><path d="M 1.90625 0 L 1.90625 -42.921875 L 10.5 -42.921875 L 10.5 -7.296875 L 19.34375 -7.296875 L 19.34375 0 Z M 1.90625 0 "/></g></g></g><g fill="#000000" fill-opacity="1"><g transform="translate(586.152354, 1042.744234)"><g><path d="M 5.59375 0 L 5.59375 -34.671875 L 0.5 -34.671875 L 0.5 -42.921875 L 19.28125 -42.921875 L 19.28125 -34.671875 L 14.1875 -34.671875 L 14.1875 0 Z M 5.59375 0 "/></g></g></g><g fill="#000000" fill-opacity="1"><g transform="translate(622.928741, 1042.744234)"><g/></g></g><g fill="#000000" fill-opacity="1"><g transform="translate(651.60793, 1042.744234)"><g/></g></g><g fill="#ff2828" fill-opacity="1"><g transform="translate(680.292021, 1042.744234)"><g><path d="M 5.59375 0 L 5.59375 -34.671875 L 0.5 -34.671875 L 0.5 -42.921875 L 19.28125 -42.921875 L 19.28125 -34.671875 L 14.1875 -34.671875 L 14.1875 0 Z M 5.59375 0 "/></g></g></g><g fill="#ff2828" fill-opacity="1"><g transform="translate(717.064254, 1042.744234)"><g><path d="M 12.140625 0.40625 C 8.679688 0.40625 6.050781 -0.648438 4.25 -2.765625 C 2.445312 -4.890625 1.546875 -7.863281 1.546875 -11.6875 L 1.546875 -32.125 C 1.546875 -35.820312 2.445312 -38.613281 4.25 -40.5 C 6.050781 -42.382812 8.679688 -43.328125 12.140625 -43.328125 C 15.609375 -43.328125 18.238281 -42.382812 20.03125 -40.5 C 21.832031 -38.613281 22.734375 -35.820312 22.734375 -32.125 L 22.734375 -11.6875 C 22.734375 -7.820312 21.832031 -4.835938 20.03125 -2.734375 C 18.238281 -0.640625 15.609375 0.40625 12.140625 0.40625 Z M 12.140625 -7.5 C 12.910156 -7.5 13.425781 -7.832031 13.6875 -8.5 C 13.957031 -9.164062 14.09375 -10.097656 14.09375 -11.296875 L 14.09375 -32.28125 C 14.09375 -33.207031 13.96875 -33.960938 13.71875 -34.546875 C 13.46875 -35.128906 12.957031 -35.421875 12.1875 -35.421875 C 10.757812 -35.421875 10.046875 -34.34375 10.046875 -32.1875 L 10.046875 -11.25 C 10.046875 -10.007812 10.191406 -9.070312 10.484375 -8.4375 C 10.785156 -7.8125 11.335938 -7.5 12.140625 -7.5 Z M 12.140625 -7.5 "/></g></g></g><g fill="#000000" fill-opacity="1"><g transform="translate(758.33889, 1042.744234)"><g/></g></g><g fill="#000000" fill-opacity="1"><g transform="translate(787.018079, 1042.744234)"><g/></g></g><g fill="#000000" fill-opacity="1"><g transform="translate(815.702162, 1042.744234)"><g><path d="M 12.09375 0.40625 C 8.195312 0.40625 5.378906 -0.554688 3.640625 -2.484375 C 1.910156 -4.421875 1.046875 -7.539062 1.046875 -11.84375 L 1.046875 -16.046875 L 9.5 -16.046875 L 9.5 -10.6875 C 9.5 -8.5625 10.179688 -7.5 11.546875 -7.5 C 12.304688 -7.5 12.835938 -7.722656 13.140625 -8.171875 C 13.441406 -8.617188 13.59375 -9.375 13.59375 -10.4375 C 13.59375 -11.84375 13.425781 -13.003906 13.09375 -13.921875 C 12.757812 -14.835938 12.332031 -15.601562 11.8125 -16.21875 C 11.300781 -16.832031 10.378906 -17.789062 9.046875 -19.09375 L 5.34375 -22.78125 C 2.476562 -25.582031 1.046875 -28.679688 1.046875 -32.078125 C 1.046875 -35.742188 1.882812 -38.535156 3.5625 -40.453125 C 5.25 -42.367188 7.707031 -43.328125 10.9375 -43.328125 C 14.800781 -43.328125 17.582031 -42.300781 19.28125 -40.25 C 20.988281 -38.195312 21.84375 -34.988281 21.84375 -30.625 L 13.09375 -30.625 L 13.046875 -33.578125 C 13.046875 -34.140625 12.882812 -34.585938 12.5625 -34.921875 C 12.25 -35.253906 11.8125 -35.421875 11.25 -35.421875 C 10.582031 -35.421875 10.082031 -35.238281 9.75 -34.875 C 9.414062 -34.507812 9.25 -34.007812 9.25 -33.375 C 9.25 -31.976562 10.046875 -30.53125 11.640625 -29.03125 L 16.640625 -24.234375 C 17.804688 -23.097656 18.769531 -22.019531 19.53125 -21 C 20.300781 -19.988281 20.921875 -18.789062 21.390625 -17.40625 C 21.859375 -16.03125 22.09375 -14.390625 22.09375 -12.484375 C 22.09375 -8.253906 21.316406 -5.046875 19.765625 -2.859375 C 18.210938 -0.679688 15.65625 0.40625 12.09375 0.40625 Z M 12.09375 0.40625 "/></g></g></g><g fill="#000000" fill-opacity="1"><g transform="translate(855.721599, 1042.744234)"><g><path d="M 12.140625 0.40625 C 8.679688 0.40625 6.050781 -0.648438 4.25 -2.765625 C 2.445312 -4.890625 1.546875 -7.863281 1.546875 -11.6875 L 1.546875 -32.125 C 1.546875 -35.820312 2.445312 -38.613281 4.25 -40.5 C 6.050781 -42.382812 8.679688 -43.328125 12.140625 -43.328125 C 15.609375 -43.328125 18.238281 -42.382812 20.03125 -40.5 C 21.832031 -38.613281 22.734375 -35.820312 22.734375 -32.125 L 22.734375 -11.6875 C 22.734375 -7.820312 21.832031 -4.835938 20.03125 -2.734375 C 18.238281 -0.640625 15.609375 0.40625 12.140625 0.40625 Z M 12.140625 -7.5 C 12.910156 -7.5 13.425781 -7.832031 13.6875 -8.5 C 13.957031 -9.164062 14.09375 -10.097656 14.09375 -11.296875 L 14.09375 -32.28125 C 14.09375 -33.207031 13.96875 -33.960938 13.71875 -34.546875 C 13.46875 -35.128906 12.957031 -35.421875 12.1875 -35.421875 C 10.757812 -35.421875 10.046875 -34.34375 10.046875 -32.1875 L 10.046875 -11.25 C 10.046875 -10.007812 10.191406 -9.070312 10.484375 -8.4375 C 10.785156 -7.8125 11.335938 -7.5 12.140625 -7.5 Z M 12.140625 -7.5 "/></g></g></g><g fill="#000000" fill-opacity="1"><g transform="translate(896.989962, 1042.744234)"><g><path d="M 1.90625 0 L 1.90625 -42.921875 L 10.5 -42.921875 L 10.5 -7.296875 L 19.34375 -7.296875 L 19.34375 0 Z M 1.90625 0 "/></g></g></g><g fill="#000000" fill-opacity="1"><g transform="translate(933.812148, 1042.744234)"><g><path d="M 5.84375 0 L 0.546875 -42.96875 L 8.75 -42.96875 L 11.890625 -13.734375 L 14.6875 -42.96875 L 22.890625 -42.96875 L 17.59375 0 Z M 5.84375 0 "/></g></g></g><g fill="#000000" fill-opacity="1"><g transform="translate(974.231247, 1042.744234)"><g><path d="M 1.90625 0 L 1.90625 -42.921875 L 19.09375 -42.921875 L 19.09375 -34.625 L 10.640625 -34.625 L 10.640625 -26.28125 L 18.734375 -26.28125 L 18.734375 -18.1875 L 10.640625 -18.1875 L 10.640625 -8.34375 L 19.640625 -8.34375 L 19.640625 0 Z M 1.90625 0 "/></g></g></g><g clip-path="url(#dc697fe411)"><g transform="matrix(1, 0, 0, 1, 558, 610)"><g clip-path="url(#e5c4d2157e)"><g clip-path="url(#ec638da38f)"><path fill="#ffffff" d="M 0.753906 0.496094 L 11.695312 0.496094 L 11.695312 57.585938 L 0.753906 57.585938 Z M 0.753906 0.496094 " fill-opacity="1" fill-rule="nonzero"/></g></g></g></g></svg>